<svg width="30" height="30" viewBox="0 0 30 30" fill="none" xmlns="http://www.w3.org/2000/svg">
<path d="M14.9917 6.66675C10.3917 6.66675 6.66675 10.4001 6.66675 15.0001C6.66675 19.6001 10.3917 23.3334 14.9917 23.3334C19.6001 23.3334 23.3334 19.6001 23.3334 15.0001C23.3334 10.4001 19.6001 6.66675 14.9917 6.66675ZM15.0001 21.6667C11.3167 21.6667 8.33341 18.6834 8.33341 15.0001C8.33341 11.3167 11.3167 8.33341 15.0001 8.33341C18.6834 8.33341 21.6667 11.3167 21.6667 15.0001C21.6667 18.6834 18.6834 21.6667 15.0001 21.6667Z" fill="#9FB0C4"/>
<path d="M15.4167 10.8334H14.1667V15.8334L18.5417 18.4584L19.1667 17.4334L15.4167 15.2084V10.8334Z" fill="#9FB0C4"/>
</svg>
