<svg width="106" height="73" viewBox="0 0 106 73" fill="none" xmlns="http://www.w3.org/2000/svg">
<path d="M75.3199 17.1211L75.4512 17.2982L82.9687 35.6521C83.0359 35.7406 83.3045 35.7406 83.3748 35.6521L90.8892 17.3012L91.0204 17.1241H102.022V42.1558L93.3135 40.9894V30.9621L93.0204 31.0964L89.4174 40.4367L89.3136 40.452L76.3062 38.7177L73.262 30.8522L73.0208 30.8064V38.2688L64.3125 37.1818V17.1211H75.3138H75.3199Z" fill="#CDDDF6"/>
<path d="M9.8737 33.2176C10.0355 35.9443 10.7775 39.019 13.324 40.4572C14.9301 41.3671 17.2537 41.4556 18.9911 40.8877C21.4979 40.0663 22.872 37.4984 23.1742 35.0008L32.2703 36.2068C31.7543 39.0129 30.597 41.6968 28.7345 43.8647C23.7483 49.6601 14.182 50.5272 7.78824 46.6158C2.75932 43.5441 0.524245 37.7152 0.704394 31.9688L9.8737 33.2145V33.2176Z" fill="white"/>
<path d="M61.3552 17.1211V24.2752H51.4805V35.3132L42.6959 34.1468V24.2752H32.8213V17.1211H61.3552Z" fill="#CDDDF6"/>
<path d="M32.6549 32.9031L23.4123 31.6543C23.1069 28.1856 21.3268 24.9063 17.5253 24.5979C14.1819 24.3262 11.7453 25.7948 10.6186 28.9459C10.5484 29.1414 10.4384 29.8162 10.2949 29.865C10.1453 29.8894 9.99265 29.8833 9.83998 29.8742C7.33621 29.7215 4.13626 29.1627 1.60501 28.778C1.51035 28.7627 1.41875 28.7291 1.32715 28.7047C2.22484 24.1552 5.31487 20.2072 9.54075 18.2988C15.8002 15.4683 24.2978 16.6316 28.8473 21.9812C31.4518 25.0468 32.6121 28.8971 32.6579 32.9001L32.6549 32.9031Z" fill="#CDDDF6"/>
<path d="M51.4047 38.6566V48.3725H42.6201V37.4902L51.4047 38.6566Z" fill="white"/>
<path d="M72.8713 41.6085V48.3717H64.1631V40.5215L72.8713 41.6085Z" fill="white"/>
<path d="M87.4087 43.5531L85.7019 48.1027L80.4622 48.1423L78.2363 42.3867L87.4087 43.5531Z" fill="white"/>
<path d="M101.946 45.4954V48.3717H93.2373V44.332L101.946 45.4954Z" fill="white"/>
<path d="M6.83452 56.669C6.83452 57.3803 6.7044 57.9919 6.44417 58.5037C6.18394 59.0133 5.82721 59.4058 5.37397 59.6812C4.9229 59.9545 4.41003 60.0911 3.83535 60.0911C3.2585 60.0911 2.74346 59.9545 2.29023 59.6812C1.83916 59.4058 1.48351 59.0122 1.22328 58.5004C0.963046 57.9886 0.83293 57.3782 0.83293 56.669C0.83293 55.9577 0.963046 55.3473 1.22328 54.8377C1.48351 54.3259 1.83916 53.9334 2.29023 53.6601C2.74346 53.3847 3.2585 53.247 3.83535 53.247C4.41003 53.247 4.9229 53.3847 5.37397 53.6601C5.82721 53.9334 6.18394 54.3259 6.44417 54.8377C6.7044 55.3473 6.83452 55.9577 6.83452 56.669ZM5.83913 56.669C5.83913 56.1269 5.75131 55.6704 5.57565 55.2996C5.40216 54.9266 5.16362 54.6447 4.86001 54.4538C4.55858 54.2608 4.21702 54.1643 3.83535 54.1643C3.45151 54.1643 3.10887 54.2608 2.80744 54.4538C2.506 54.6447 2.26746 54.9266 2.0918 55.2996C1.91831 55.6704 1.83157 56.1269 1.83157 56.669C1.83157 57.2112 1.91831 57.6688 2.0918 58.0418C2.26746 58.4126 2.506 58.6945 2.80744 58.8875C3.10887 59.0783 3.45151 59.1738 3.83535 59.1738C4.21702 59.1738 4.55858 59.0783 4.86001 58.8875C5.16362 58.6945 5.40216 58.4126 5.57565 58.0418C5.75131 57.6688 5.83913 57.2112 5.83913 56.669ZM8.98224 53.3381V60H8.00963V53.3381H8.98224ZM12.1611 60.0976C11.7578 60.0976 11.3978 59.9946 11.0812 59.7886C10.7667 59.5804 10.5195 59.2844 10.3395 58.9005C10.1617 58.5145 10.0728 58.0515 10.0728 57.5115C10.0728 56.9716 10.1628 56.5096 10.3428 56.1258C10.5249 55.742 10.7743 55.4481 11.0909 55.2443C11.4075 55.0404 11.7664 54.9385 12.1676 54.9385C12.4777 54.9385 12.7271 54.9905 12.9158 55.0946C13.1066 55.1966 13.2541 55.3158 13.3582 55.4525C13.4645 55.5891 13.5469 55.7094 13.6054 55.8135H13.664V53.3381H14.6366V60H13.6867V59.2226H13.6054C13.5469 59.3288 13.4623 59.4503 13.3517 59.5869C13.2433 59.7235 13.0936 59.8428 12.9028 59.9447C12.712 60.0466 12.4647 60.0976 12.1611 60.0976ZM12.3758 59.2681C12.6556 59.2681 12.892 59.1944 13.085 59.0469C13.2801 58.8973 13.4276 58.6902 13.5273 58.4256C13.6293 58.161 13.6802 57.8531 13.6802 57.5018C13.6802 57.1548 13.6304 56.8512 13.5306 56.591C13.4308 56.3307 13.2845 56.128 13.0915 55.9827C12.8985 55.8374 12.6599 55.7647 12.3758 55.7647C12.0831 55.7647 11.8391 55.8406 11.6439 55.9924C11.4487 56.1442 11.3013 56.3513 11.2015 56.6137C11.1039 56.8761 11.0551 57.1722 11.0551 57.5018C11.0551 57.8357 11.105 58.1361 11.2048 58.4028C11.3045 58.6696 11.452 58.881 11.6472 59.0371C11.8445 59.1911 12.0874 59.2681 12.3758 59.2681ZM20.6837 60H18.527V53.3381H20.752C21.4048 53.3381 21.9654 53.4714 22.4338 53.7382C22.9022 54.0027 23.2611 54.3833 23.5105 54.8799C23.762 55.3744 23.8878 55.9675 23.8878 56.6593C23.8878 57.3532 23.761 57.9496 23.5072 58.4484C23.2557 58.9471 22.8913 59.331 22.4143 59.5999C21.9372 59.8666 21.3603 60 20.6837 60ZM19.5322 59.1217H20.6284C21.1359 59.1217 21.5577 59.0263 21.8938 58.8355C22.2299 58.6425 22.4815 58.3638 22.6485 57.9995C22.8154 57.633 22.8989 57.1862 22.8989 56.6593C22.8989 56.1366 22.8154 55.6932 22.6485 55.3288C22.4836 54.9645 22.2375 54.688 21.9101 54.4994C21.5826 54.3107 21.176 54.2164 20.6902 54.2164H19.5322V59.1217ZM27.1643 60.1008C26.6959 60.1008 26.2871 59.9935 25.938 59.7788C25.5888 59.5641 25.3177 59.2638 25.1247 58.8778C24.9317 58.4917 24.8352 58.0407 24.8352 57.5245C24.8352 57.0063 24.9317 56.553 25.1247 56.1648C25.3177 55.7767 25.5888 55.4752 25.938 55.2605C26.2871 55.0458 26.6959 54.9385 27.1643 54.9385C27.6327 54.9385 28.0415 55.0458 28.3906 55.2605C28.7398 55.4752 29.0109 55.7767 29.2039 56.1648C29.3969 56.553 29.4934 57.0063 29.4934 57.5245C29.4934 58.0407 29.3969 58.4917 29.2039 58.8778C29.0109 59.2638 28.7398 59.5641 28.3906 59.7788C28.0415 59.9935 27.6327 60.1008 27.1643 60.1008ZM27.1675 59.2844C27.4712 59.2844 27.7227 59.2041 27.9222 59.0436C28.1217 58.8832 28.2692 58.6696 28.3646 58.4028C28.4622 58.1361 28.511 57.8422 28.511 57.5213C28.511 57.2025 28.4622 56.9098 28.3646 56.643C28.2692 56.3741 28.1217 56.1583 27.9222 55.9957C27.7227 55.833 27.4712 55.7517 27.1675 55.7517C26.8618 55.7517 26.608 55.833 26.4064 55.9957C26.2069 56.1583 26.0583 56.3741 25.9607 56.643C25.8653 56.9098 25.8176 57.2025 25.8176 57.5213C25.8176 57.8422 25.8653 58.1361 25.9607 58.4028C26.0583 58.6696 26.2069 58.8832 26.4064 59.0436C26.608 59.2041 26.8618 59.2844 27.1675 59.2844ZM30.579 60V55.0036H31.5126V55.8168H31.5744C31.6785 55.5414 31.8487 55.3267 32.0851 55.1727C32.3215 55.0166 32.6045 54.9385 32.9341 54.9385C33.2681 54.9385 33.5478 55.0166 33.7734 55.1727C34.0011 55.3288 34.1691 55.5435 34.2776 55.8168H34.3296C34.4489 55.55 34.6386 55.3375 34.8989 55.1792C35.1591 55.0187 35.4692 54.9385 35.8292 54.9385C36.2824 54.9385 36.6522 55.0805 36.9384 55.3646C37.2269 55.6487 37.3711 56.077 37.3711 56.6495V60H36.3984V56.7406C36.3984 56.4023 36.3063 56.1572 36.122 56.0054C35.9376 55.8536 35.7175 55.7777 35.4616 55.7777C35.145 55.7777 34.8989 55.8753 34.7232 56.0705C34.5476 56.2635 34.4597 56.5118 34.4597 56.8154V60H33.4904V56.6788C33.4904 56.4077 33.4058 56.1898 33.2366 56.025C33.0675 55.8602 32.8474 55.7777 32.5763 55.7777C32.392 55.7777 32.2217 55.8265 32.0656 55.9241C31.9116 56.0195 31.7869 56.1529 31.6915 56.3242C31.5983 56.4955 31.5516 56.694 31.5516 56.9195V60H30.579ZM38.6747 60V55.0036H39.6473V60H38.6747ZM39.1658 54.2326C38.9967 54.2326 38.8514 54.1762 38.73 54.0635C38.6107 53.9485 38.551 53.8119 38.551 53.6536C38.551 53.4931 38.6107 53.3565 38.73 53.2437C38.8514 53.1288 38.9967 53.0713 39.1658 53.0713C39.335 53.0713 39.4792 53.1288 39.5985 53.2437C39.7199 53.3565 39.7806 53.4931 39.7806 53.6536C39.7806 53.8119 39.7199 53.9485 39.5985 54.0635C39.4792 54.1762 39.335 54.2326 39.1658 54.2326ZM41.9284 57.0334V60H40.9557V55.0036H41.8893V55.8168H41.9511C42.0661 55.5522 42.2461 55.3397 42.4911 55.1792C42.7383 55.0187 43.0495 54.9385 43.4247 54.9385C43.7652 54.9385 44.0633 55.0101 44.3192 55.1532C44.5751 55.2941 44.7736 55.5045 44.9145 55.7842C45.0555 56.064 45.126 56.4099 45.126 56.8219V60H44.1533V56.939C44.1533 56.5769 44.059 56.2939 43.8703 56.09C43.6817 55.884 43.4225 55.781 43.0929 55.781C42.8674 55.781 42.6668 55.8298 42.4911 55.9274C42.3176 56.025 42.1799 56.1681 42.078 56.3568C41.9782 56.5433 41.9284 56.7688 41.9284 57.0334ZM46.4304 60V55.0036H47.403V60H46.4304ZM46.9216 54.2326C46.7524 54.2326 46.6071 54.1762 46.4857 54.0635C46.3664 53.9485 46.3068 53.8119 46.3068 53.6536C46.3068 53.4931 46.3664 53.3565 46.4857 53.2437C46.6071 53.1288 46.7524 53.0713 46.9216 53.0713C47.0907 53.0713 47.2349 53.1288 47.3542 53.2437C47.4756 53.3565 47.5364 53.4931 47.5364 53.6536C47.5364 53.8119 47.4756 53.9485 47.3542 54.0635C47.2349 54.1762 47.0907 54.2326 46.9216 54.2326ZM50.8161 60.1008C50.3477 60.1008 49.9389 59.9935 49.5897 59.7788C49.2406 59.5641 48.9695 59.2638 48.7765 58.8778C48.5835 58.4917 48.487 58.0407 48.487 57.5245C48.487 57.0063 48.5835 56.553 48.7765 56.1648C48.9695 55.7767 49.2406 55.4752 49.5897 55.2605C49.9389 55.0458 50.3477 54.9385 50.8161 54.9385C51.2845 54.9385 51.6933 55.0458 52.0424 55.2605C52.3916 55.4752 52.6626 55.7767 52.8557 56.1648C53.0487 56.553 53.1452 57.0063 53.1452 57.5245C53.1452 58.0407 53.0487 58.4917 52.8557 58.8778C52.6626 59.2638 52.3916 59.5641 52.0424 59.7788C51.6933 59.9935 51.2845 60.1008 50.8161 60.1008ZM50.8193 59.2844C51.1229 59.2844 51.3745 59.2041 51.574 59.0436C51.7735 58.8832 51.921 58.6696 52.0164 58.4028C52.114 58.1361 52.1628 57.8422 52.1628 57.5213C52.1628 57.2025 52.114 56.9098 52.0164 56.643C51.921 56.3741 51.7735 56.1583 51.574 55.9957C51.3745 55.833 51.1229 55.7517 50.8193 55.7517C50.5136 55.7517 50.2598 55.833 50.0582 55.9957C49.8587 56.1583 49.7101 56.3741 49.6125 56.643C49.5171 56.9098 49.4694 57.2025 49.4694 57.5213C49.4694 57.8422 49.5171 58.1361 49.6125 58.4028C49.7101 58.6696 49.8587 58.8832 50.0582 59.0436C50.2598 59.2041 50.5136 59.2844 50.8193 59.2844ZM55.2034 57.0334V60H54.2308V55.0036H55.1644V55.8168H55.2262C55.3411 55.5522 55.5211 55.3397 55.7662 55.1792C56.0134 55.0187 56.3246 54.9385 56.6998 54.9385C57.0402 54.9385 57.3384 55.0101 57.5943 55.1532C57.8502 55.2941 58.0486 55.5045 58.1896 55.7842C58.3305 56.064 58.401 56.4099 58.401 56.8219V60H57.4284V56.939C57.4284 56.5769 57.3341 56.2939 57.1454 56.09C56.9567 55.884 56.6976 55.781 56.368 55.781C56.1424 55.781 55.9418 55.8298 55.7662 55.9274C55.5927 56.025 55.455 56.1681 55.3531 56.3568C55.2533 56.5433 55.2034 56.7688 55.2034 57.0334ZM66.4918 53.3381H67.5002V57.7197C67.5002 58.186 67.3907 58.5991 67.1716 58.9591C66.9526 59.3169 66.6447 59.5988 66.2478 59.8048C65.851 60.0087 65.3858 60.1106 64.8523 60.1106C64.321 60.1106 63.8569 60.0087 63.4601 59.8048C63.0632 59.5988 62.7553 59.3169 62.5363 58.9591C62.3172 58.5991 62.2077 58.186 62.2077 57.7197V53.3381H63.2129V57.6384C63.2129 57.9398 63.279 58.2077 63.4113 58.4419C63.5457 58.6761 63.7355 58.8604 63.9806 58.9949C64.2256 59.1271 64.5162 59.1933 64.8523 59.1933C65.1906 59.1933 65.4823 59.1271 65.7274 58.9949C65.9746 58.8604 66.1632 58.6761 66.2934 58.4419C66.4256 58.2077 66.4918 57.9398 66.4918 57.6384V53.3381ZM69.8561 57.0334V60H68.8835V55.0036H69.8171V55.8168H69.8789C69.9938 55.5522 70.1738 55.3397 70.4188 55.1792C70.6661 55.0187 70.9773 54.9385 71.3524 54.9385C71.6929 54.9385 71.9911 55.0101 72.247 55.1532C72.5029 55.2941 72.7013 55.5045 72.8422 55.7842C72.9832 56.064 73.0537 56.4099 73.0537 56.8219V60H72.0811V56.939C72.0811 56.5769 71.9867 56.2939 71.7981 56.09C71.6094 55.884 71.3503 55.781 71.0206 55.781C70.7951 55.781 70.5945 55.8298 70.4188 55.9274C70.2454 56.025 70.1076 56.1681 70.0057 56.3568C69.906 56.5433 69.8561 56.7688 69.8561 57.0334ZM74.3581 60V55.0036H75.3307V60H74.3581ZM74.8493 54.2326C74.6801 54.2326 74.5348 54.1762 74.4134 54.0635C74.2941 53.9485 74.2345 53.8119 74.2345 53.6536C74.2345 53.4931 74.2941 53.3565 74.4134 53.2437C74.5348 53.1288 74.6801 53.0713 74.8493 53.0713C75.0184 53.0713 75.1626 53.1288 75.2819 53.2437C75.4034 53.3565 75.4641 53.4931 75.4641 53.6536C75.4641 53.8119 75.4034 53.9485 75.2819 54.0635C75.1626 54.1762 75.0184 54.2326 74.8493 54.2326ZM80.9135 55.0036L79.1016 60H78.0607L76.2456 55.0036H77.2898L78.5551 58.8485H78.6072L79.8693 55.0036H80.9135ZM83.811 60.1008C83.3187 60.1008 82.8948 59.9957 82.5391 59.7853C82.1856 59.5728 81.9124 59.2746 81.7194 58.8908C81.5286 58.5048 81.4331 58.0526 81.4331 57.5343C81.4331 57.0225 81.5286 56.5714 81.7194 56.1811C81.9124 55.7908 82.1813 55.4861 82.5261 55.267C82.8731 55.048 83.2786 54.9385 83.7427 54.9385C84.0246 54.9385 84.2979 54.9851 84.5624 55.0784C84.827 55.1716 85.0644 55.318 85.2748 55.5175C85.4852 55.717 85.6511 55.9762 85.7725 56.295C85.8939 56.6116 85.9547 56.9965 85.9547 57.4497V57.7945H81.9829V57.0659H85.0016C85.0016 56.81 84.9495 56.5834 84.8454 56.386C84.7413 56.1865 84.5949 56.0293 84.4063 55.9144C84.2198 55.7994 84.0008 55.742 83.7492 55.742C83.476 55.742 83.2374 55.8092 83.0336 55.9436C82.8319 56.0759 82.6757 56.2494 82.5651 56.4641C82.4567 56.6766 82.4025 56.9076 82.4025 57.157V57.7262C82.4025 58.0602 82.4611 58.3443 82.5782 58.5785C82.6974 58.8127 82.8633 58.9916 83.0758 59.1152C83.2884 59.2367 83.5367 59.2974 83.8208 59.2974C84.0051 59.2974 84.1732 59.2714 84.325 59.2193C84.4768 59.1651 84.608 59.0849 84.7186 58.9786C84.8292 58.8723 84.9137 58.7411 84.9723 58.585L85.8929 58.7509C85.8191 59.022 85.6868 59.2594 85.496 59.4633C85.3073 59.665 85.0699 59.8222 84.7836 59.9349C84.4995 60.0455 84.1753 60.1008 83.811 60.1008ZM87.0338 60V55.0036H87.9739V55.7973H88.0259C88.117 55.5284 88.2775 55.3169 88.5074 55.1629C88.7394 55.0068 89.0018 54.9287 89.2946 54.9287C89.3553 54.9287 89.4269 54.9309 89.5093 54.9352C89.5938 54.9396 89.66 54.945 89.7077 54.9515V55.8818C89.6687 55.871 89.5993 55.8591 89.4995 55.8461C89.3997 55.8309 89.3 55.8233 89.2002 55.8233C88.9704 55.8233 88.7654 55.8721 88.5854 55.9697C88.4076 56.0651 88.2667 56.1985 88.1626 56.3698C88.0585 56.5389 88.0064 56.7319 88.0064 56.9488V60H87.0338ZM94.2935 56.2234L93.4119 56.3795C93.3751 56.2668 93.3165 56.1594 93.2363 56.0575C93.1582 55.9556 93.0519 55.8721 92.9175 55.807C92.783 55.742 92.615 55.7094 92.4133 55.7094C92.1379 55.7094 91.908 55.7712 91.7237 55.8948C91.5393 56.0163 91.4472 56.1735 91.4472 56.3665C91.4472 56.5335 91.509 56.668 91.6326 56.7699C91.7562 56.8718 91.9557 56.9553 92.2311 57.0203L93.0248 57.2025C93.4846 57.3088 93.8272 57.4725 94.0527 57.6937C94.2783 57.9149 94.391 58.2022 94.391 58.5557C94.391 58.855 94.3043 59.1217 94.1308 59.3559C93.9595 59.588 93.7199 59.7701 93.4119 59.9024C93.1062 60.0347 92.7516 60.1008 92.3482 60.1008C91.7887 60.1008 91.3322 59.9816 90.9788 59.743C90.6253 59.5023 90.4084 59.1608 90.3282 58.7184L91.2683 58.5752C91.3268 58.8203 91.4472 59.0057 91.6293 59.1315C91.8115 59.2551 92.049 59.3169 92.3417 59.3169C92.6605 59.3169 92.9153 59.2508 93.1062 59.1185C93.297 58.984 93.3924 58.8203 93.3924 58.6273C93.3924 58.4711 93.3339 58.3399 93.2168 58.2337C93.1018 58.1274 92.9251 58.0472 92.6865 57.993L91.8408 57.8075C91.3745 57.7013 91.0297 57.5321 90.8064 57.3001C90.5852 57.0681 90.4746 56.7742 90.4746 56.4186C90.4746 56.1236 90.557 55.8656 90.7218 55.6444C90.8866 55.4232 91.1143 55.2508 91.4049 55.1272C91.6955 55.0014 92.0284 54.9385 92.4035 54.9385C92.9435 54.9385 93.3686 55.0556 93.6787 55.2898C93.9888 55.5218 94.1937 55.833 94.2935 56.2234ZM95.4604 60V55.0036H96.433V60H95.4604ZM95.9516 54.2326C95.7825 54.2326 95.6372 54.1762 95.5157 54.0635C95.3965 53.9485 95.3368 53.8119 95.3368 53.6536C95.3368 53.4931 95.3965 53.3565 95.5157 53.2437C95.6372 53.1288 95.7825 53.0713 95.9516 53.0713C96.1208 53.0713 96.265 53.1288 96.3843 53.2437C96.5057 53.3565 96.5664 53.4931 96.5664 53.6536C96.5664 53.8119 96.5057 53.9485 96.3843 54.0635C96.265 54.1762 96.1208 54.2326 95.9516 54.2326ZM100.074 55.0036V55.7842H97.3447V55.0036H100.074ZM98.0766 53.8065H99.0492V58.5329C99.0492 58.7216 99.0774 58.8637 99.1338 58.9591C99.1901 59.0523 99.2628 59.1163 99.3517 59.151C99.4428 59.1835 99.5415 59.1998 99.6477 59.1998C99.7258 59.1998 99.7941 59.1944 99.8527 59.1835C99.9112 59.1727 99.9567 59.164 99.9893 59.1575L100.165 59.961C100.109 59.9827 100.028 60.0043 99.9242 60.026C99.8201 60.0499 99.69 60.0629 99.5339 60.0651C99.278 60.0694 99.0394 60.0239 98.8182 59.9284C98.597 59.833 98.4181 59.6856 98.2815 59.486C98.1449 59.2865 98.0766 59.0361 98.0766 58.7346V53.8065ZM101.765 61.8737C101.619 61.8737 101.487 61.8617 101.368 61.8379C101.248 61.8162 101.16 61.7923 101.101 61.7663L101.335 60.9694C101.513 61.0171 101.671 61.0377 101.81 61.0312C101.949 61.0247 102.071 60.9726 102.178 60.875C102.286 60.7774 102.382 60.618 102.464 60.3969L102.584 60.0651L100.756 55.0036H101.797L103.062 58.881H103.114L104.38 55.0036H105.424L103.365 60.6668C103.27 60.9271 103.148 61.1472 103.001 61.3272C102.853 61.5093 102.678 61.646 102.474 61.737C102.27 61.8281 102.033 61.8737 101.765 61.8737ZM20.1441 65.2033V64.3381H25.3V65.2033H23.2214V71H22.2195V65.2033H20.1441ZM25.8424 71V66.0036H26.7825V66.7973H26.8345C26.9256 66.5284 27.0861 66.3169 27.316 66.1629C27.548 66.0068 27.8104 65.9287 28.1032 65.9287C28.1639 65.9287 28.2354 65.9309 28.3179 65.9352C28.4024 65.9396 28.4686 65.945 28.5163 65.9515V66.8818C28.4772 66.871 28.4078 66.8591 28.3081 66.8461C28.2083 66.8309 28.1086 66.8233 28.0088 66.8233C27.779 66.8233 27.574 66.8721 27.394 66.9697C27.2162 67.0651 27.0752 67.1985 26.9712 67.3698C26.8671 67.5389 26.815 67.7319 26.815 67.9488V71H25.8424ZM30.7673 71.1106C30.4507 71.1106 30.1644 71.052 29.9085 70.9349C29.6526 70.8157 29.4499 70.6433 29.3002 70.4177C29.1528 70.1922 29.079 69.9157 29.079 69.5882C29.079 69.3063 29.1332 69.0743 29.2417 68.8921C29.3501 68.71 29.4965 68.5658 29.6808 68.4595C29.8651 68.3532 30.0712 68.273 30.2989 68.2188C30.5266 68.1646 30.7586 68.1234 30.995 68.0952C31.2942 68.0605 31.5371 68.0323 31.7236 68.0106C31.9101 67.9867 32.0457 67.9488 32.1302 67.8967C32.2148 67.8447 32.2571 67.7601 32.2571 67.643V67.6202C32.2571 67.3362 32.1769 67.116 32.0164 66.9599C31.8581 66.8038 31.6217 66.7257 31.3073 66.7257C30.9798 66.7257 30.7217 66.7983 30.5331 66.9436C30.3466 67.0868 30.2175 67.2462 30.146 67.4218L29.2319 67.2136C29.3403 66.91 29.4987 66.665 29.7068 66.4785C29.9172 66.2898 30.159 66.1532 30.4322 66.0686C30.7055 65.9819 30.9928 65.9385 31.2942 65.9385C31.4938 65.9385 31.7052 65.9624 31.9286 66.0101C32.1541 66.0556 32.3645 66.1402 32.5596 66.2638C32.757 66.3874 32.9185 66.5641 33.0443 66.794C33.1701 67.0217 33.233 67.3177 33.233 67.682V71H32.2831V70.3169H32.2441C32.1812 70.4427 32.0869 70.5663 31.9611 70.6877C31.8353 70.8092 31.6738 70.91 31.4764 70.9902C31.2791 71.0705 31.0427 71.1106 30.7673 71.1106ZM30.9787 70.3299C31.2476 70.3299 31.4775 70.2768 31.6683 70.1705C31.8613 70.0643 32.0077 69.9255 32.1075 69.7541C32.2094 69.5807 32.2604 69.3952 32.2604 69.1979V68.5538C32.2257 68.5885 32.1584 68.6211 32.0587 68.6514C31.9611 68.6796 31.8494 68.7045 31.7236 68.7262C31.5979 68.7457 31.4753 68.7642 31.3561 68.7815C31.2368 68.7967 31.137 68.8097 31.0568 68.8206C30.8681 68.8444 30.6957 68.8845 30.5396 68.9409C30.3856 68.9973 30.262 69.0786 30.1687 69.1849C30.0777 69.289 30.0321 69.4278 30.0321 69.6013C30.0321 69.842 30.121 70.0241 30.2989 70.1477C30.4767 70.2692 30.7033 70.3299 30.9787 70.3299ZM35.5011 68.0334V71H34.5284V66.0036H35.462V66.8168H35.5238C35.6388 66.5522 35.8188 66.3397 36.0638 66.1792C36.311 66.0187 36.6222 65.9385 36.9974 65.9385C37.3379 65.9385 37.636 66.0101 37.8919 66.1532C38.1478 66.2941 38.3463 66.5045 38.4872 66.7842C38.6282 67.064 38.6986 67.4099 38.6986 67.8219V71H37.726V67.939C37.726 67.5769 37.6317 67.2939 37.443 67.09C37.2544 66.884 36.9952 66.781 36.6656 66.781C36.4401 66.781 36.2395 66.8298 36.0638 66.9274C35.8903 67.025 35.7526 67.1681 35.6507 67.3568C35.5509 67.5433 35.5011 67.7688 35.5011 68.0334ZM43.7471 67.2234L42.8656 67.3795C42.8287 67.2668 42.7702 67.1594 42.69 67.0575C42.6119 66.9556 42.5056 66.8721 42.3712 66.807C42.2367 66.742 42.0686 66.7094 41.867 66.7094C41.5916 66.7094 41.3617 66.7712 41.1774 66.8948C40.993 67.0163 40.9009 67.1735 40.9009 67.3665C40.9009 67.5335 40.9627 67.668 41.0863 67.7699C41.2099 67.8718 41.4094 67.9553 41.6848 68.0203L42.4785 68.2025C42.9383 68.3088 43.2809 68.4725 43.5064 68.6937C43.732 68.9149 43.8447 69.2022 43.8447 69.5557C43.8447 69.855 43.758 70.1217 43.5845 70.3559C43.4132 70.588 43.1735 70.7701 42.8656 70.9024C42.5598 71.0347 42.2053 71.1008 41.8019 71.1008C41.2424 71.1008 40.7859 70.9816 40.4324 70.743C40.079 70.5023 39.8621 70.1608 39.7819 69.7184L40.7219 69.5752C40.7805 69.8203 40.9009 70.0057 41.083 70.1315C41.2652 70.2551 41.5026 70.3169 41.7954 70.3169C42.1142 70.3169 42.369 70.2508 42.5598 70.1185C42.7507 69.984 42.8461 69.8203 42.8461 69.6273C42.8461 69.4711 42.7875 69.3399 42.6704 69.2337C42.5555 69.1274 42.3788 69.0472 42.1402 68.993L41.2945 68.8075C40.8282 68.7013 40.4834 68.5321 40.26 68.3001C40.0388 68.0681 39.9282 67.7742 39.9282 67.4186C39.9282 67.1236 40.0106 66.8656 40.1755 66.6444C40.3403 66.4232 40.568 66.2508 40.8586 66.1272C41.1492 66.0014 41.482 65.9385 41.8572 65.9385C42.3972 65.9385 42.8222 66.0556 43.1323 66.2898C43.4425 66.5218 43.6474 66.833 43.7471 67.2234ZM47.292 66.0036V66.7842H44.4685V66.0036H47.292ZM45.2427 71V65.4245C45.2427 65.1123 45.311 64.8531 45.4476 64.6471C45.5842 64.4389 45.7653 64.2839 45.9908 64.1819C46.2164 64.0778 46.4614 64.0258 46.726 64.0258C46.9212 64.0258 47.0881 64.0421 47.2269 64.0746C47.3657 64.1049 47.4687 64.1331 47.5359 64.1592L47.3082 64.9464C47.2627 64.9334 47.2042 64.9182 47.1326 64.9008C47.061 64.8813 46.9743 64.8715 46.8724 64.8715C46.636 64.8715 46.4668 64.9301 46.3649 65.0472C46.2652 65.1643 46.2153 65.3335 46.2153 65.5547V71H45.2427ZM50.2521 71.1008C49.7598 71.1008 49.3359 70.9957 48.9802 70.7853C48.6268 70.5728 48.3535 70.2746 48.1605 69.8908C47.9697 69.5048 47.8743 69.0526 47.8743 68.5343C47.8743 68.0225 47.9697 67.5714 48.1605 67.1811C48.3535 66.7908 48.6224 66.4861 48.9672 66.267C49.3142 66.048 49.7197 65.9385 50.1838 65.9385C50.4657 65.9385 50.739 65.9851 51.0035 66.0784C51.2681 66.1716 51.5056 66.318 51.7159 66.5175C51.9263 66.717 52.0922 66.9762 52.2136 67.295C52.3351 67.6116 52.3958 67.9965 52.3958 68.4497V68.7945H48.424V68.0659H51.4427C51.4427 67.81 51.3906 67.5834 51.2865 67.386C51.1824 67.1865 51.0361 67.0293 50.8474 66.9144C50.6609 66.7994 50.4419 66.742 50.1903 66.742C49.9171 66.742 49.6785 66.8092 49.4747 66.9436C49.273 67.0759 49.1169 67.2494 49.0063 67.4641C48.8978 67.6766 48.8436 67.9076 48.8436 68.157V68.7262C48.8436 69.0602 48.9022 69.3443 49.0193 69.5785C49.1385 69.8127 49.3044 69.9916 49.517 70.1152C49.7295 70.2367 49.9778 70.2974 50.2619 70.2974C50.4462 70.2974 50.6143 70.2714 50.7661 70.2193C50.9179 70.1651 51.0491 70.0849 51.1597 69.9786C51.2703 69.8723 51.3548 69.7411 51.4134 69.585L52.334 69.7509C52.2602 70.022 52.128 70.2594 51.9371 70.4633C51.7484 70.665 51.511 70.8222 51.2247 70.9349C50.9406 71.0455 50.6164 71.1008 50.2521 71.1008ZM53.4749 71V66.0036H54.415V66.7973H54.4671C54.5581 66.5284 54.7186 66.3169 54.9485 66.1629C55.1805 66.0068 55.4429 65.9287 55.7357 65.9287C55.7964 65.9287 55.868 65.9309 55.9504 65.9352C56.035 65.9396 56.1011 65.945 56.1488 65.9515V66.8818C56.1098 66.871 56.0404 66.8591 55.9406 66.8461C55.8409 66.8309 55.7411 66.8233 55.6413 66.8233C55.4115 66.8233 55.2065 66.8721 55.0266 66.9697C54.8487 67.0651 54.7078 67.1985 54.6037 67.3698C54.4996 67.5389 54.4475 67.7319 54.4475 67.9488V71H53.4749ZM59.4928 64.3381H60.7126L62.8335 69.5167H62.9116L65.0325 64.3381H66.2523V71H65.2959V66.1792H65.2341L63.2694 70.9902H62.4757L60.5109 66.176H60.4491V71H59.4928V64.3381ZM69.0896 71.1106C68.773 71.1106 68.4868 71.052 68.2309 70.9349C67.975 70.8157 67.7722 70.6433 67.6226 70.4177C67.4751 70.1922 67.4014 69.9157 67.4014 69.5882C67.4014 69.3063 67.4556 69.0743 67.564 68.8921C67.6724 68.71 67.8188 68.5658 68.0032 68.4595C68.1875 68.3532 68.3935 68.273 68.6212 68.2188C68.8489 68.1646 69.081 68.1234 69.3173 68.0952C69.6166 68.0605 69.8595 68.0323 70.046 68.0106C70.2325 67.9867 70.368 67.9488 70.4526 67.8967C70.5372 67.8447 70.5795 67.7601 70.5795 67.643V67.6202C70.5795 67.3362 70.4992 67.116 70.3387 66.9599C70.1804 66.8038 69.9441 66.7257 69.6296 66.7257C69.3021 66.7257 69.0441 66.7983 68.8554 66.9436C68.6689 67.0868 68.5399 67.2462 68.4683 67.4218L67.5543 67.2136C67.6627 66.91 67.821 66.665 68.0292 66.4785C68.2395 66.2898 68.4813 66.1532 68.7546 66.0686C69.0278 65.9819 69.3152 65.9385 69.6166 65.9385C69.8161 65.9385 70.0275 65.9624 70.2509 66.0101C70.4764 66.0556 70.6868 66.1402 70.882 66.2638C71.0793 66.3874 71.2409 66.5641 71.3667 66.794C71.4924 67.0217 71.5553 67.3177 71.5553 67.682V71H70.6055V70.3169H70.5664C70.5036 70.4427 70.4092 70.5663 70.2834 70.6877C70.1577 70.8092 69.9961 70.91 69.7988 70.9902C69.6014 71.0705 69.365 71.1106 69.0896 71.1106ZM69.3011 70.3299C69.57 70.3299 69.7998 70.2768 69.9907 70.1705C70.1837 70.0643 70.3301 69.9255 70.4298 69.7541C70.5317 69.5807 70.5827 69.3952 70.5827 69.1979V68.5538C70.548 68.5885 70.4808 68.6211 70.381 68.6514C70.2834 68.6796 70.1718 68.7045 70.046 68.7262C69.9202 68.7457 69.7977 68.7642 69.6784 68.7815C69.5591 68.7967 69.4594 68.8097 69.3791 68.8206C69.1905 68.8444 69.0181 68.8845 68.8619 68.9409C68.708 68.9973 68.5843 69.0786 68.4911 69.1849C68.4 69.289 68.3545 69.4278 68.3545 69.6013C68.3545 69.842 68.4434 70.0241 68.6212 70.1477C68.799 70.2692 69.0257 70.3299 69.3011 70.3299ZM75.1831 66.0036V66.7842H72.4539V66.0036H75.1831ZM73.1858 64.8065H74.1584V69.5329C74.1584 69.7216 74.1866 69.8637 74.243 69.9591C74.2994 70.0523 74.3721 70.1163 74.461 70.151C74.552 70.1835 74.6507 70.1998 74.757 70.1998C74.835 70.1998 74.9034 70.1944 74.9619 70.1835C75.0205 70.1727 75.066 70.164 75.0985 70.1575L75.2742 70.961C75.2178 70.9827 75.1376 71.0043 75.0335 71.026C74.9294 71.0499 74.7993 71.0629 74.6431 71.0651C74.3872 71.0694 74.1487 71.0239 73.9275 70.9284C73.7063 70.833 73.5274 70.6856 73.3908 70.486C73.2541 70.2865 73.1858 70.0361 73.1858 69.7346V64.8065ZM78.31 71.1008C77.8264 71.1008 77.41 70.9913 77.0608 70.7723C76.7139 70.5511 76.4471 70.2464 76.2606 69.8582C76.0741 69.4701 75.9809 69.0255 75.9809 68.5245C75.9809 68.0171 76.0763 67.5693 76.2671 67.1811C76.458 66.7908 76.7269 66.4861 77.0739 66.267C77.4208 66.048 77.8296 65.9385 78.3002 65.9385C78.6797 65.9385 79.018 66.009 79.3151 66.1499C79.6122 66.2887 79.8518 66.4839 80.034 66.7355C80.2183 66.987 80.3278 67.2809 80.3625 67.617H79.4159C79.3639 67.3828 79.2446 67.1811 79.0581 67.012C78.8738 66.8428 78.6266 66.7582 78.3165 66.7582C78.0454 66.7582 77.8079 66.8298 77.6041 66.9729C77.4024 67.1139 77.2452 67.3156 77.1324 67.578C77.0196 67.8382 76.9633 68.1461 76.9633 68.5018C76.9633 68.8661 77.0186 69.1805 77.1292 69.4451C77.2398 69.7097 77.3959 69.9146 77.5976 70.0599C77.8014 70.2052 78.041 70.2779 78.3165 70.2779C78.5008 70.2779 78.6678 70.2442 78.8174 70.177C78.9692 70.1076 79.0961 70.009 79.198 69.881C79.3021 69.7531 79.3747 69.5991 79.4159 69.4191H80.3625C80.3278 69.7422 80.2227 70.0306 80.047 70.2844C79.8713 70.5381 79.636 70.7376 79.3411 70.8829C79.0484 71.0282 78.7046 71.1008 78.31 71.1008ZM82.3753 68.0334V71H81.4026V64.3381H82.3622V66.8168H82.4241C82.5412 66.5479 82.7201 66.3343 82.9608 66.176C83.2015 66.0177 83.5159 65.9385 83.9041 65.9385C84.2468 65.9385 84.546 66.009 84.8019 66.1499C85.06 66.2909 85.2595 66.5012 85.4004 66.781C85.5436 67.0586 85.6151 67.4056 85.6151 67.8219V71H84.6425V67.939C84.6425 67.5725 84.5482 67.2884 84.3595 67.0868C84.1709 66.8829 83.9085 66.781 83.5723 66.781C83.3425 66.781 83.1364 66.8298 82.9543 66.9274C82.7743 67.025 82.6322 67.1681 82.5281 67.3568C82.4262 67.5433 82.3753 67.7688 82.3753 68.0334Z" fill="white"/>
</svg>
