<svg width="30" height="30" viewBox="0 0 30 30" fill="none" xmlns="http://www.w3.org/2000/svg">
<g filter="url(#filter0_ddd_12829_123495)">
<rect x="5" y="5" width="20" height="20" rx="10" fill="white"/>
<path d="M15.0003 6.66699C10.392 6.66699 6.66699 10.392 6.66699 15.0003C6.66699 19.6087 10.392 23.3337 15.0003 23.3337C19.6087 23.3337 23.3337 19.6087 23.3337 15.0003C23.3337 10.392 19.6087 6.66699 15.0003 6.66699ZM19.167 17.992L17.992 19.167L15.0003 16.1753L12.0087 19.167L10.8337 17.992L13.8253 15.0003L10.8337 12.0087L12.0087 10.8337L15.0003 13.8253L17.992 10.8337L19.167 12.0087L16.1753 15.0003L19.167 17.992Z" fill="black" fill-opacity="0.56"/>
</g>
<defs>
<filter id="filter0_ddd_12829_123495" x="-3" y="-2" width="36" height="36" filterUnits="userSpaceOnUse" color-interpolation-filters="sRGB">
<feFlood flood-opacity="0" result="BackgroundImageFix"/>
<feColorMatrix in="SourceAlpha" type="matrix" values="0 0 0 0 0 0 0 0 0 0 0 0 0 0 0 0 0 0 127 0" result="hardAlpha"/>
<feMorphology radius="1" operator="erode" in="SourceAlpha" result="effect1_dropShadow_12829_123495"/>
<feOffset dy="2"/>
<feGaussianBlur stdDeviation="0.5"/>
<feComposite in2="hardAlpha" operator="out"/>
<feColorMatrix type="matrix" values="0 0 0 0 0 0 0 0 0 0 0 0 0 0 0 0 0 0 0.2 0"/>
<feBlend mode="normal" in2="BackgroundImageFix" result="effect1_dropShadow_12829_123495"/>
<feColorMatrix in="SourceAlpha" type="matrix" values="0 0 0 0 0 0 0 0 0 0 0 0 0 0 0 0 0 0 127 0" result="hardAlpha"/>
<feOffset dy="1"/>
<feGaussianBlur stdDeviation="0.5"/>
<feComposite in2="hardAlpha" operator="out"/>
<feColorMatrix type="matrix" values="0 0 0 0 0 0 0 0 0 0 0 0 0 0 0 0 0 0 0.14 0"/>
<feBlend mode="normal" in2="effect1_dropShadow_12829_123495" result="effect2_dropShadow_12829_123495"/>
<feColorMatrix in="SourceAlpha" type="matrix" values="0 0 0 0 0 0 0 0 0 0 0 0 0 0 0 0 0 0 127 0" result="hardAlpha"/>
<feOffset dy="1"/>
<feGaussianBlur stdDeviation="1.5"/>
<feComposite in2="hardAlpha" operator="out"/>
<feColorMatrix type="matrix" values="0 0 0 0 0 0 0 0 0 0 0 0 0 0 0 0 0 0 0.12 0"/>
<feBlend mode="normal" in2="effect2_dropShadow_12829_123495" result="effect3_dropShadow_12829_123495"/>
<feBlend mode="normal" in="SourceGraphic" in2="effect3_dropShadow_12829_123495" result="shape"/>
</filter>
</defs>
</svg>
