<svg width="34" height="32" viewBox="0 0 34 32" fill="none" xmlns="http://www.w3.org/2000/svg">
<path d="M17 32C11.25 32 6 29 3.125 24C0.25 19.0625 0.25 13 3.125 8C6 3.0625 11.25 0 17 0C22.6875 0 27.9375 3.0625 30.8125 8C33.6875 13 33.6875 19.0625 30.8125 24C27.9375 29 22.6875 32 17 32ZM24.0625 13.0625H24C24.625 12.5 24.625 11.5625 24 10.9375C23.4375 10.375 22.5 10.375 21.9375 10.9375L15 17.9375L12.0625 15C11.4375 14.375 10.5 14.375 9.9375 15C9.3125 15.5625 9.3125 16.5 9.9375 17.0625L13.9375 21.0625C14.5 21.6875 15.4375 21.6875 16.0625 21.0625L24.0625 13.0625Z" fill="#438449"/>
</svg>
