<svg width="256" height="81" viewBox="0 0 256 81" fill="none" xmlns="http://www.w3.org/2000/svg">
<path d="M189.433 1.31055L189.756 1.74813L208.291 47.0986C208.457 47.3174 209.119 47.3174 209.293 47.0986L227.82 1.75568L228.144 1.31809H255.268V63.1686L233.798 60.2865V35.5101L233.075 35.8421L224.191 58.921L223.935 58.9587L191.864 54.6734L184.359 35.2385L183.764 35.1254V53.5643L162.293 50.8784V1.31055H189.418H189.433Z" fill="#1C345F"/>
<path d="M23.1384 41.0857C23.5374 47.823 25.3668 55.4204 31.6454 58.9739C35.6054 61.2222 41.3345 61.441 45.6181 60.0377C51.7989 58.0082 55.1867 51.6632 55.932 45.4918L78.359 48.4719C77.0867 55.4054 74.2335 62.037 69.6412 67.3937C57.3473 81.7133 33.7609 83.856 17.9965 74.1914C5.59726 66.6015 0.0864848 52.1989 0.530659 38L23.1384 41.0782V41.0857Z" fill="#5977A6"/>
<path d="M152.536 1.31055V18.9875H128.19V46.2612L106.53 43.3791V18.9875H82.1836V1.31055H152.536Z" fill="#1C345F"/>
<path d="M79.3076 40.3087L56.5192 37.223C55.7663 28.6523 51.3773 20.5494 42.0044 19.7874C33.7609 19.116 27.7532 22.7449 24.9753 30.5309C24.8021 31.0138 24.5311 32.6811 24.1772 32.8018C23.8084 32.8622 23.4319 32.8471 23.0555 32.8245C16.8823 32.4472 8.99251 31.0666 2.75149 30.116C2.51811 30.0782 2.29226 29.9952 2.06641 29.9349C4.27975 18.6935 11.8985 8.93832 22.3177 4.22296C37.7509 -2.77087 58.7024 0.103618 69.9197 13.3217C76.3414 20.8965 79.2022 30.4102 79.3151 40.3011L79.3076 40.3087Z" fill="#1C345F"/>
<path d="M128.001 54.5227V78.5295H106.342V51.6406L128.001 54.5227Z" fill="#5977A6"/>
<path d="M183.395 61.8187V78.5299H161.924V59.1328L183.395 61.8187Z" fill="#5977A6"/>
<path d="M219.237 66.6242L215.029 77.8656L202.11 77.9637L196.622 63.7422L219.237 66.6242Z" fill="#5977A6"/>
<path d="M255.08 71.4223V78.5293H233.609V68.5479L255.08 71.4223Z" fill="#5977A6"/>
</svg>
