<svg width="260" height="121" viewBox="0 0 260 121" fill="none" xmlns="http://www.w3.org/2000/svg">
<path d="M190.433 5.31055L190.756 5.74813L209.291 51.0986C209.457 51.3174 210.119 51.3174 210.293 51.0986L228.82 5.75568L229.144 5.31809H256.268V67.1686L234.798 64.2865V39.5101L234.075 39.8421L225.191 62.921L224.935 62.9587L192.864 58.6734L185.359 39.2385L184.764 39.1254V57.5643L163.293 54.8784V5.31055H190.418H190.433Z" fill="#1C345F"/>
<path d="M24.1384 45.0857C24.5374 51.823 26.3668 59.4204 32.6454 62.9739C36.6054 65.2222 42.3345 65.441 46.6181 64.0377C52.7989 62.0082 56.1867 55.6632 56.932 49.4918L79.359 52.4719C78.0867 59.4054 75.2335 66.037 70.6412 71.3937C58.3473 85.7133 34.7609 87.856 18.9965 78.1914C6.59726 70.6015 1.08648 56.1989 1.53066 42L24.1384 45.0782V45.0857Z" fill="#5977A6"/>
<path d="M153.536 5.31055V22.9875H129.19V50.2612L107.53 47.3791V22.9875H83.1836V5.31055H153.536Z" fill="#1C345F"/>
<path d="M80.3076 44.3087L57.5192 41.223C56.7663 32.6523 52.3773 24.5494 43.0044 23.7874C34.7609 23.116 28.7532 26.7449 25.9753 34.5309C25.8021 35.0138 25.5311 36.6811 25.1772 36.8018C24.8084 36.8622 24.4319 36.8471 24.0555 36.8245C17.8823 36.4472 9.99251 35.0666 3.75149 34.116C3.51811 34.0782 3.29226 33.9952 3.06641 33.9349C5.27975 22.6935 12.8985 12.9383 23.3177 8.22296C38.7509 1.22913 59.7024 4.10362 70.9197 17.3217C77.3414 24.8965 80.2022 34.4102 80.3151 44.3011L80.3076 44.3087Z" fill="#1C345F"/>
<path d="M129.001 58.5227V82.5295H107.342V55.6406L129.001 58.5227Z" fill="#5977A6"/>
<path d="M184.395 65.8187V82.5299H162.924V63.1328L184.395 65.8187Z" fill="#5977A6"/>
<path d="M220.237 70.6242L216.029 81.8656L203.11 81.9637L197.622 67.7422L220.237 70.6242Z" fill="#5977A6"/>
<path d="M256.08 75.4223V82.5293H234.609V72.5479L256.08 75.4223Z" fill="#5977A6"/>
<path d="M60.4688 97.1578C60.4688 98.2393 60.2735 99.174 59.883 99.9618C59.4924 100.75 58.9567 101.357 58.2757 101.784C57.5947 102.212 56.8169 102.425 55.9423 102.425C55.0677 102.425 54.2899 102.212 53.609 101.784C52.928 101.357 52.3922 100.75 52.0017 99.9618C51.6111 99.174 51.4158 98.2393 51.4158 97.1578C51.4158 96.0762 51.6111 95.1416 52.0017 94.3538C52.3922 93.566 52.928 92.9584 53.609 92.5311C54.2899 92.1039 55.0677 91.8902 55.9423 91.8902C56.8169 91.8902 57.5947 92.1039 58.2757 92.5311C58.9567 92.9584 59.4924 93.566 59.883 94.3538C60.2735 95.1416 60.4688 96.0762 60.4688 97.1578ZM59.2671 97.1578C59.2671 96.2698 59.1186 95.5204 58.8215 94.9096C58.5277 94.2987 58.1288 93.8363 57.6247 93.5226C57.124 93.2088 56.5632 93.0519 55.9423 93.0519C55.3214 93.0519 54.759 93.2088 54.2549 93.5226C53.7542 93.8363 53.3553 94.2987 53.0582 94.9096C52.7644 95.5204 52.6175 96.2698 52.6175 97.1578C52.6175 98.0457 52.7644 98.7951 53.0582 99.406C53.3553 100.017 53.7542 100.479 54.2549 100.793C54.759 101.107 55.3214 101.264 55.9423 101.264C56.5632 101.264 57.124 101.107 57.6247 100.793C58.1288 100.479 58.5277 100.017 58.8215 99.406C59.1186 98.7951 59.2671 98.0457 59.2671 97.1578ZM63.5783 92.0304V102.285H62.3966V92.0304H63.5783ZM68.6468 102.445C68.0059 102.445 67.4401 102.283 66.9494 101.96C66.4587 101.633 66.0748 101.172 65.7977 100.578C65.5207 99.9802 65.3821 99.2742 65.3821 98.4597C65.3821 97.6518 65.5207 96.9508 65.7977 96.3566C66.0748 95.7624 66.4604 95.3035 66.9544 94.9797C67.4484 94.6559 68.0193 94.494 68.6669 94.494C69.1676 94.494 69.5631 94.5774 69.8536 94.7443C70.1473 94.9079 70.371 95.0948 70.5245 95.3051C70.6814 95.5121 70.8033 95.6823 70.8901 95.8159H70.9902V92.0304H72.1719V102.285H71.0303V101.103H70.8901C70.8033 101.244 70.6798 101.421 70.5195 101.634C70.3593 101.845 70.1306 102.033 69.8335 102.2C69.5364 102.364 69.1409 102.445 68.6468 102.445ZM68.8071 101.384C69.2811 101.384 69.6817 101.26 70.0088 101.013C70.3359 100.763 70.5846 100.417 70.7549 99.9768C70.9251 99.5329 71.0102 99.0205 71.0102 98.4396C71.0102 97.8655 70.9268 97.3631 70.7599 96.9325C70.593 96.4985 70.3459 96.1614 70.0188 95.921C69.6917 95.6773 69.2878 95.5555 68.8071 95.5555C68.3063 95.5555 67.8891 95.684 67.5553 95.941C67.2248 96.1947 66.9761 96.5402 66.8092 96.9775C66.6456 97.4115 66.5638 97.8989 66.5638 98.4396C66.5638 98.9871 66.6473 99.4845 66.8142 99.9318C66.9844 100.376 67.2348 100.73 67.5653 100.993C67.8991 101.254 68.313 101.384 68.8071 101.384ZM81.7907 102.285H78.6262V92.0304H81.9309C82.9257 92.0304 83.7769 92.2357 84.4846 92.6463C85.1923 93.0536 85.7347 93.6394 86.1119 94.4038C86.4891 95.1649 86.6777 96.0762 86.6777 97.1378C86.6777 98.206 86.4875 99.1256 86.1069 99.8967C85.7264 100.664 85.1722 101.255 84.4445 101.669C83.7168 102.08 82.8322 102.285 81.7907 102.285ZM79.868 101.184H81.7106C82.5585 101.184 83.2612 101.02 83.8186 100.693C84.3761 100.366 84.7917 99.9001 85.0654 99.2959C85.3391 98.6917 85.476 97.9723 85.476 97.1378C85.476 96.3099 85.3408 95.5972 85.0704 94.9997C84.8 94.3988 84.3961 93.9382 83.8587 93.6177C83.3212 93.2939 82.652 93.132 81.8508 93.132H79.868V101.184ZM91.725 102.445C91.0307 102.445 90.4215 102.28 89.8974 101.95C89.3766 101.619 88.9694 101.157 88.6756 100.563C88.3852 99.9685 88.24 99.2742 88.24 98.4797C88.24 97.6785 88.3852 96.9792 88.6756 96.3817C88.9694 95.7841 89.3766 95.3201 89.8974 94.9897C90.4215 94.6592 91.0307 94.494 91.725 94.494C92.4193 94.494 93.0269 94.6592 93.5476 94.9897C94.0717 95.3201 94.479 95.7841 94.7694 96.3817C95.0631 96.9792 95.21 97.6785 95.21 98.4797C95.21 99.2742 95.0631 99.9685 94.7694 100.563C94.479 101.157 94.0717 101.619 93.5476 101.95C93.0269 102.28 92.4193 102.445 91.725 102.445ZM91.725 101.384C92.2524 101.384 92.6864 101.249 93.0269 100.978C93.3674 100.708 93.6194 100.352 93.783 99.9117C93.9465 99.4711 94.0283 98.9938 94.0283 98.4797C94.0283 97.9656 93.9465 97.4866 93.783 97.0426C93.6194 96.5987 93.3674 96.2398 93.0269 95.9661C92.6864 95.6923 92.2524 95.5555 91.725 95.5555C91.1976 95.5555 90.7636 95.6923 90.4231 95.9661C90.0826 96.2398 89.8306 96.5987 89.667 97.0426C89.5035 97.4866 89.4217 97.9656 89.4217 98.4797C89.4217 98.9938 89.5035 99.4711 89.667 99.9117C89.8306 100.352 90.0826 100.708 90.4231 100.978C90.7636 101.249 91.1976 101.384 91.725 101.384ZM97.0138 102.285V94.5941H98.1555V95.7958H98.2556C98.4159 95.3852 98.6746 95.0664 99.0317 94.8395C99.3889 94.6091 99.8179 94.494 100.319 94.494C100.826 94.494 101.248 94.6091 101.585 94.8395C101.926 95.0664 102.191 95.3852 102.382 95.7958H102.462C102.659 95.3986 102.954 95.0831 103.348 94.8495C103.742 94.6125 104.214 94.494 104.765 94.494C105.453 94.494 106.015 94.7093 106.452 95.1399C106.89 95.5672 107.108 96.2331 107.108 97.1378V102.285H105.927V97.1378C105.927 96.5703 105.771 96.1647 105.461 95.921C105.151 95.6773 104.785 95.5555 104.364 95.5555C103.824 95.5555 103.405 95.7191 103.108 96.0462C102.811 96.37 102.662 96.7806 102.662 97.278V102.285H101.46V97.0176C101.46 96.5803 101.318 96.2281 101.035 95.9611C100.751 95.6907 100.385 95.5555 99.938 95.5555C99.6309 95.5555 99.3439 95.6373 99.0768 95.8008C98.8131 95.9644 98.5995 96.1914 98.4359 96.4818C98.2757 96.7689 98.1955 97.101 98.1955 97.4782V102.285H97.0138ZM109.269 102.285V94.5941H110.451V102.285H109.269ZM109.87 93.3123C109.639 93.3123 109.441 93.2338 109.274 93.0769C109.11 92.92 109.029 92.7314 109.029 92.5111C109.029 92.2908 109.11 92.1022 109.274 91.9453C109.441 91.7884 109.639 91.71 109.87 91.71C110.1 91.71 110.297 91.7884 110.461 91.9453C110.628 92.1022 110.711 92.2908 110.711 92.5111C110.711 92.7314 110.628 92.92 110.461 93.0769C110.297 93.2338 110.1 93.3123 109.87 93.3123ZM113.797 97.6585V102.285H112.615V94.5941H113.757V95.7958H113.857C114.037 95.4053 114.311 95.0915 114.678 94.8545C115.045 94.6141 115.519 94.494 116.1 94.494C116.621 94.494 117.076 94.6008 117.467 94.8144C117.858 95.0247 118.161 95.3452 118.378 95.7758C118.595 96.2031 118.704 96.7439 118.704 97.3981V102.285H117.522V97.4782C117.522 96.874 117.365 96.4034 117.051 96.0662C116.738 95.7257 116.307 95.5555 115.76 95.5555C115.382 95.5555 115.045 95.6373 114.748 95.8008C114.454 95.9644 114.222 96.2031 114.052 96.5169C113.882 96.8307 113.797 97.2112 113.797 97.6585ZM120.863 102.285V94.5941H122.045V102.285H120.863ZM121.464 93.3123C121.234 93.3123 121.035 93.2338 120.868 93.0769C120.705 92.92 120.623 92.7314 120.623 92.5111C120.623 92.2908 120.705 92.1022 120.868 91.9453C121.035 91.7884 121.234 91.71 121.464 91.71C121.694 91.71 121.891 91.7884 122.055 91.9453C122.222 92.1022 122.305 92.2908 122.305 92.5111C122.305 92.7314 122.222 92.92 122.055 93.0769C121.891 93.2338 121.694 93.3123 121.464 93.3123ZM127.334 102.445C126.639 102.445 126.03 102.28 125.506 101.95C124.985 101.619 124.578 101.157 124.284 100.563C123.994 99.9685 123.849 99.2742 123.849 98.4797C123.849 97.6785 123.994 96.9792 124.284 96.3817C124.578 95.7841 124.985 95.3201 125.506 94.9897C126.03 94.6592 126.639 94.494 127.334 94.494C128.028 94.494 128.636 94.6592 129.156 94.9897C129.68 95.3201 130.088 95.7841 130.378 96.3817C130.672 96.9792 130.819 97.6785 130.819 98.4797C130.819 99.2742 130.672 99.9685 130.378 100.563C130.088 101.157 129.68 101.619 129.156 101.95C128.636 102.28 128.028 102.445 127.334 102.445ZM127.334 101.384C127.861 101.384 128.295 101.249 128.636 100.978C128.976 100.708 129.228 100.352 129.392 99.9117C129.555 99.4711 129.637 98.9938 129.637 98.4797C129.637 97.9656 129.555 97.4866 129.392 97.0426C129.228 96.5987 128.976 96.2398 128.636 95.9661C128.295 95.6923 127.861 95.5555 127.334 95.5555C126.806 95.5555 126.372 95.6923 126.032 95.9661C125.691 96.2398 125.439 96.5987 125.276 97.0426C125.112 97.4866 125.03 97.9656 125.03 98.4797C125.03 98.9938 125.112 99.4711 125.276 99.9117C125.439 100.352 125.691 100.708 126.032 100.978C126.372 101.249 126.806 101.384 127.334 101.384ZM133.804 97.6585V102.285H132.623V94.5941H133.764V95.7958H133.864C134.045 95.4053 134.318 95.0915 134.685 94.8545C135.053 94.6141 135.527 94.494 136.108 94.494C136.628 94.494 137.084 94.6008 137.474 94.8144C137.865 95.0247 138.169 95.3452 138.386 95.7758C138.603 96.2031 138.711 96.7439 138.711 97.3981V102.285H137.53V97.4782C137.53 96.874 137.373 96.4034 137.059 96.0662C136.745 95.7257 136.314 95.5555 135.767 95.5555C135.39 95.5555 135.053 95.6373 134.756 95.8008C134.462 95.9644 134.23 96.2031 134.06 96.5169C133.889 96.8307 133.804 97.2112 133.804 97.6585ZM151.726 92.0304H152.968V98.8202C152.968 99.5212 152.803 100.147 152.472 100.698C152.145 101.245 151.683 101.678 151.085 101.995C150.488 102.309 149.787 102.465 148.982 102.465C148.178 102.465 147.477 102.309 146.879 101.995C146.282 101.678 145.818 101.245 145.487 100.698C145.16 100.147 144.997 99.5212 144.997 98.8202V92.0304H146.238V98.72C146.238 99.2208 146.348 99.6664 146.569 100.057C146.789 100.444 147.103 100.75 147.51 100.973C147.921 101.194 148.411 101.304 148.982 101.304C149.553 101.304 150.044 101.194 150.454 100.973C150.865 100.75 151.179 100.444 151.396 100.057C151.616 99.6664 151.726 99.2208 151.726 98.72V92.0304ZM156.469 97.6585V102.285H155.288V94.5941H156.429V95.7958H156.529C156.71 95.4053 156.983 95.0915 157.351 94.8545C157.718 94.6141 158.192 94.494 158.773 94.494C159.293 94.494 159.749 94.6008 160.14 94.8144C160.53 95.0247 160.834 95.3452 161.051 95.7758C161.268 96.2031 161.376 96.7439 161.376 97.3981V102.285H160.195V97.4782C160.195 96.874 160.038 96.4034 159.724 96.0662C159.41 95.7257 158.98 95.5555 158.432 95.5555C158.055 95.5555 157.718 95.6373 157.421 95.8008C157.127 95.9644 156.895 96.2031 156.725 96.5169C156.554 96.8307 156.469 97.2112 156.469 97.6585ZM163.536 102.285V94.5941H164.717V102.285H163.536ZM164.137 93.3123C163.906 93.3123 163.708 93.2338 163.541 93.0769C163.377 92.92 163.295 92.7314 163.295 92.5111C163.295 92.2908 163.377 92.1022 163.541 91.9453C163.708 91.7884 163.906 91.71 164.137 91.71C164.367 91.71 164.564 91.7884 164.727 91.9453C164.894 92.1022 164.978 92.2908 164.978 92.5111C164.978 92.7314 164.894 92.92 164.727 93.0769C164.564 93.2338 164.367 93.3123 164.137 93.3123ZM173.171 94.5941L170.327 102.285H169.125L166.281 94.5941H167.563L169.686 100.723H169.766L171.889 94.5941H173.171ZM177.68 102.445C176.939 102.445 176.299 102.282 175.762 101.955C175.228 101.624 174.816 101.164 174.525 100.573C174.238 99.9785 174.095 99.2875 174.095 98.4997C174.095 97.7119 174.238 97.0176 174.525 96.4167C174.816 95.8125 175.22 95.3418 175.737 95.0047C176.258 94.6642 176.865 94.494 177.56 94.494C177.96 94.494 178.356 94.5607 178.746 94.6942C179.137 94.8278 179.492 95.0448 179.813 95.3452C180.133 95.6423 180.389 96.0362 180.579 96.5269C180.769 97.0176 180.864 97.6218 180.864 98.3395V98.8402H174.936V97.8187H179.663C179.663 97.3848 179.576 96.9976 179.402 96.6571C179.232 96.3166 178.988 96.0479 178.671 95.8509C178.357 95.654 177.987 95.5555 177.56 95.5555C177.089 95.5555 176.682 95.6723 176.338 95.906C175.997 96.1363 175.735 96.4368 175.552 96.8073C175.368 97.1778 175.276 97.5751 175.276 97.999V98.68C175.276 99.2608 175.376 99.7532 175.577 100.157C175.78 100.558 176.062 100.863 176.423 101.073C176.783 101.28 177.202 101.384 177.68 101.384C177.99 101.384 178.271 101.34 178.521 101.254C178.775 101.164 178.993 101.03 179.177 100.853C179.361 100.673 179.502 100.449 179.603 100.182L180.744 100.503C180.624 100.89 180.422 101.23 180.138 101.524C179.855 101.814 179.504 102.041 179.087 102.205C178.67 102.365 178.201 102.445 177.68 102.445ZM182.662 102.285V94.5941H183.804V95.7558H183.884C184.024 95.3752 184.278 95.0664 184.645 94.8294C185.012 94.5924 185.426 94.4739 185.887 94.4739C185.973 94.4739 186.082 94.4756 186.212 94.4789C186.342 94.4823 186.441 94.4873 186.507 94.494V95.6957C186.467 95.6857 186.376 95.6707 186.232 95.6506C186.092 95.6273 185.943 95.6156 185.786 95.6156C185.413 95.6156 185.079 95.694 184.785 95.8509C184.495 96.0045 184.264 96.2181 184.094 96.4918C183.927 96.7622 183.844 97.071 183.844 97.4182V102.285H182.662ZM193.356 96.3166L192.295 96.617C192.228 96.4401 192.129 96.2682 191.999 96.1013C191.872 95.931 191.699 95.7908 191.478 95.6807C191.258 95.5705 190.976 95.5154 190.632 95.5154C190.161 95.5154 189.769 95.6239 189.455 95.8409C189.145 96.0545 188.99 96.3266 188.99 96.6571C188.99 96.9508 189.097 97.1828 189.31 97.3531C189.524 97.5233 189.858 97.6652 190.312 97.7787L191.453 98.0591C192.141 98.226 192.653 98.4814 192.991 98.8252C193.328 99.1657 193.496 99.6046 193.496 100.142C193.496 100.583 193.369 100.977 193.116 101.324C192.865 101.671 192.515 101.945 192.064 102.145C191.614 102.345 191.089 102.445 190.492 102.445C189.707 102.445 189.058 102.275 188.544 101.935C188.03 101.594 187.705 101.097 187.568 100.443L188.689 100.162C188.796 100.576 188.998 100.886 189.295 101.093C189.596 101.3 189.988 101.404 190.472 101.404C191.023 101.404 191.46 101.287 191.784 101.053C192.111 100.816 192.274 100.533 192.274 100.202C192.274 99.9351 192.181 99.7115 191.994 99.5312C191.807 99.3476 191.52 99.2107 191.133 99.1206L189.851 98.8202C189.147 98.6533 188.629 98.3946 188.299 98.0441C187.972 97.6902 187.808 97.2479 187.808 96.7172C187.808 96.2832 187.93 95.8993 188.174 95.5655C188.421 95.2317 188.756 94.9696 189.18 94.7794C189.607 94.5891 190.091 94.494 190.632 94.494C191.393 94.494 191.991 94.6609 192.425 94.9947C192.862 95.3285 193.172 95.7691 193.356 96.3166ZM195.275 102.285V94.5941H196.457V102.285H195.275ZM195.876 93.3123C195.646 93.3123 195.447 93.2338 195.28 93.0769C195.116 92.92 195.035 92.7314 195.035 92.5111C195.035 92.2908 195.116 92.1022 195.28 91.9453C195.447 91.7884 195.646 91.71 195.876 91.71C196.106 91.71 196.303 91.7884 196.467 91.9453C196.634 92.1022 196.717 92.2908 196.717 92.5111C196.717 92.7314 196.634 92.92 196.467 93.0769C196.303 93.2338 196.106 93.3123 195.876 93.3123ZM201.966 94.5941V95.5955H197.98V94.5941H201.966ZM199.142 92.7515H200.324V100.082C200.324 100.416 200.372 100.666 200.469 100.833C200.569 100.997 200.696 101.107 200.849 101.164C201.006 101.217 201.171 101.244 201.345 101.244C201.475 101.244 201.582 101.237 201.665 101.224C201.749 101.207 201.816 101.194 201.866 101.184L202.106 102.245C202.026 102.275 201.914 102.305 201.771 102.335C201.627 102.369 201.445 102.385 201.225 102.385C200.891 102.385 200.564 102.314 200.243 102.17C199.926 102.026 199.663 101.808 199.452 101.514C199.245 101.22 199.142 100.85 199.142 100.402V92.7515ZM204.505 105.169C204.304 105.169 204.126 105.153 203.969 105.119C203.812 105.089 203.703 105.059 203.643 105.029L203.944 103.988C204.231 104.061 204.485 104.088 204.705 104.068C204.925 104.048 205.12 103.949 205.291 103.772C205.464 103.599 205.623 103.317 205.766 102.926L205.987 102.325L203.143 94.5941H204.424L206.548 100.723H206.628L208.751 94.5941H210.033L206.768 103.407C206.621 103.804 206.439 104.133 206.222 104.393C206.005 104.657 205.753 104.852 205.466 104.979C205.182 105.106 204.862 105.169 204.505 105.169ZM80.7367 110.132V109.03H88.4278V110.132H85.2031V119.285H83.9613V110.132H80.7367ZM89.3854 119.285V111.594H90.527V112.756H90.6071C90.7473 112.375 91.001 112.066 91.3682 111.829C91.7354 111.592 92.1494 111.474 92.61 111.474C92.6968 111.474 92.8053 111.476 92.9355 111.479C93.0657 111.482 93.1641 111.487 93.2309 111.494V112.696C93.1908 112.686 93.099 112.671 92.9555 112.651C92.8153 112.627 92.6668 112.616 92.5099 112.616C92.136 112.616 91.8022 112.694 91.5084 112.851C91.218 113.004 90.9877 113.218 90.8174 113.492C90.6505 113.762 90.5671 114.071 90.5671 114.418V119.285H89.3854ZM96.8949 119.465C96.4076 119.465 95.9653 119.374 95.568 119.19C95.1708 119.003 94.8553 118.734 94.6217 118.384C94.388 118.03 94.2712 117.603 94.2712 117.102C94.2712 116.661 94.3579 116.304 94.5315 116.03C94.7051 115.753 94.9371 115.536 95.2275 115.38C95.5179 115.223 95.8384 115.106 96.1889 115.029C96.5428 114.949 96.8983 114.886 97.2554 114.839C97.7228 114.779 98.1017 114.734 98.3921 114.704C98.6858 114.67 98.8995 114.615 99.033 114.538C99.1699 114.462 99.2383 114.328 99.2383 114.138V114.098C99.2383 113.604 99.1031 113.22 98.8327 112.946C98.5657 112.672 98.1601 112.535 97.616 112.535C97.0518 112.535 96.6095 112.659 96.2891 112.906C95.9686 113.153 95.7433 113.417 95.6131 113.697L94.4915 113.297C94.6918 112.829 94.9588 112.465 95.2926 112.205C95.6298 111.941 95.997 111.758 96.3942 111.654C96.7948 111.547 97.1887 111.494 97.5759 111.494C97.8229 111.494 98.1067 111.524 98.4271 111.584C98.7509 111.641 99.063 111.759 99.3635 111.94C99.6672 112.12 99.9193 112.392 100.12 112.756C100.32 113.12 100.42 113.607 100.42 114.218V119.285H99.2383V118.244H99.1782C99.0981 118.411 98.9646 118.589 98.7776 118.779C98.5907 118.97 98.342 119.132 98.0316 119.265C97.7211 119.399 97.3422 119.465 96.8949 119.465ZM97.0752 118.404C97.5425 118.404 97.9364 118.312 98.2569 118.128C98.5807 117.945 98.8244 117.708 98.9879 117.417C99.1548 117.127 99.2383 116.822 99.2383 116.501V115.42C99.1882 115.48 99.0781 115.535 98.9078 115.585C98.7409 115.632 98.5473 115.673 98.327 115.71C98.11 115.743 97.898 115.773 97.6911 115.8C97.4874 115.824 97.3222 115.844 97.1954 115.86C96.8882 115.9 96.6012 115.965 96.3341 116.056C96.0704 116.142 95.8568 116.274 95.6932 116.451C95.533 116.625 95.4529 116.862 95.4529 117.162C95.4529 117.573 95.6047 117.883 95.9085 118.093C96.2156 118.3 96.6045 118.404 97.0752 118.404ZM103.759 114.659V119.285H102.577V111.594H103.718V112.796H103.819C103.999 112.405 104.273 112.091 104.64 111.854C105.007 111.614 105.481 111.494 106.062 111.494C106.583 111.494 107.038 111.601 107.429 111.814C107.819 112.025 108.123 112.345 108.34 112.776C108.557 113.203 108.666 113.744 108.666 114.398V119.285H107.484V114.478C107.484 113.874 107.327 113.403 107.013 113.066C106.699 112.726 106.269 112.555 105.721 112.555C105.344 112.555 105.007 112.637 104.71 112.801C104.416 112.964 104.184 113.203 104.014 113.517C103.844 113.831 103.759 114.211 103.759 114.659ZM116.273 113.317L115.211 113.617C115.144 113.44 115.046 113.268 114.916 113.101C114.789 112.931 114.615 112.791 114.395 112.681C114.175 112.571 113.893 112.515 113.549 112.515C113.078 112.515 112.686 112.624 112.372 112.841C112.062 113.055 111.907 113.327 111.907 113.657C111.907 113.951 112.013 114.183 112.227 114.353C112.441 114.523 112.774 114.665 113.228 114.779L114.37 115.059C115.058 115.226 115.57 115.481 115.907 115.825C116.244 116.166 116.413 116.605 116.413 117.142C116.413 117.583 116.286 117.977 116.032 118.324C115.782 118.671 115.432 118.945 114.981 119.145C114.53 119.345 114.006 119.445 113.409 119.445C112.624 119.445 111.975 119.275 111.461 118.935C110.947 118.594 110.621 118.097 110.484 117.443L111.606 117.162C111.713 117.576 111.915 117.886 112.212 118.093C112.512 118.3 112.905 118.404 113.389 118.404C113.939 118.404 114.377 118.287 114.701 118.053C115.028 117.816 115.191 117.533 115.191 117.202C115.191 116.935 115.098 116.711 114.911 116.531C114.724 116.348 114.437 116.211 114.05 116.121L112.768 115.82C112.063 115.653 111.546 115.395 111.216 115.044C110.888 114.69 110.725 114.248 110.725 113.717C110.725 113.283 110.847 112.899 111.09 112.565C111.337 112.232 111.673 111.97 112.097 111.779C112.524 111.589 113.008 111.494 113.549 111.494C114.31 111.494 114.907 111.661 115.341 111.995C115.779 112.328 116.089 112.769 116.273 113.317ZM121.617 111.594V112.596H117.471V111.594H121.617ZM118.713 119.285V110.533C118.713 110.092 118.816 109.725 119.023 109.431C119.23 109.137 119.499 108.917 119.829 108.77C120.16 108.623 120.508 108.55 120.876 108.55C121.166 108.55 121.403 108.573 121.587 108.62C121.77 108.667 121.907 108.71 121.997 108.75L121.657 109.771C121.597 109.751 121.513 109.726 121.406 109.696C121.303 109.666 121.166 109.651 120.996 109.651C120.605 109.651 120.323 109.75 120.15 109.947C119.979 110.144 119.894 110.432 119.894 110.813V119.285H118.713ZM126.181 119.445C125.44 119.445 124.8 119.282 124.263 118.955C123.729 118.624 123.317 118.164 123.026 117.573C122.739 116.979 122.596 116.288 122.596 115.5C122.596 114.712 122.739 114.018 123.026 113.417C123.317 112.813 123.721 112.342 124.238 112.005C124.759 111.664 125.366 111.494 126.061 111.494C126.461 111.494 126.857 111.561 127.247 111.694C127.638 111.828 127.993 112.045 128.314 112.345C128.634 112.642 128.89 113.036 129.08 113.527C129.27 114.018 129.365 114.622 129.365 115.339V115.84H123.437V114.819H128.164C128.164 114.385 128.077 113.998 127.903 113.657C127.733 113.317 127.489 113.048 127.172 112.851C126.858 112.654 126.488 112.555 126.061 112.555C125.59 112.555 125.183 112.672 124.839 112.906C124.498 113.136 124.236 113.437 124.053 113.807C123.869 114.178 123.777 114.575 123.777 114.999V115.68C123.777 116.261 123.877 116.753 124.078 117.157C124.281 117.558 124.563 117.863 124.924 118.073C125.284 118.28 125.703 118.384 126.181 118.384C126.491 118.384 126.772 118.34 127.022 118.254C127.276 118.164 127.494 118.03 127.678 117.853C127.862 117.673 128.003 117.449 128.104 117.182L129.245 117.503C129.125 117.89 128.923 118.23 128.639 118.524C128.356 118.814 128.005 119.041 127.588 119.205C127.171 119.365 126.702 119.445 126.181 119.445ZM131.163 119.285V111.594H132.305V112.756H132.385C132.525 112.375 132.779 112.066 133.146 111.829C133.513 111.592 133.927 111.474 134.388 111.474C134.474 111.474 134.583 111.476 134.713 111.479C134.843 111.482 134.942 111.487 135.008 111.494V112.696C134.968 112.686 134.877 112.671 134.733 112.651C134.593 112.627 134.444 112.616 134.287 112.616C133.914 112.616 133.58 112.694 133.286 112.851C132.996 113.004 132.765 113.218 132.595 113.492C132.428 113.762 132.345 114.071 132.345 114.418V119.285H131.163ZM140.535 109.03H142.017L145.502 117.543H145.622L149.107 109.03H150.59V119.285H149.428V111.494H149.328L146.123 119.285H145.002L141.797 111.494H141.697V119.285H140.535V109.03ZM155.182 119.465C154.695 119.465 154.253 119.374 153.856 119.19C153.458 119.003 153.143 118.734 152.909 118.384C152.676 118.03 152.559 117.603 152.559 117.102C152.559 116.661 152.645 116.304 152.819 116.03C152.993 115.753 153.225 115.536 153.515 115.38C153.805 115.223 154.126 115.106 154.476 115.029C154.83 114.949 155.186 114.886 155.543 114.839C156.01 114.779 156.389 114.734 156.68 114.704C156.973 114.67 157.187 114.615 157.321 114.538C157.457 114.462 157.526 114.328 157.526 114.138V114.098C157.526 113.604 157.391 113.22 157.12 112.946C156.853 112.672 156.448 112.535 155.903 112.535C155.339 112.535 154.897 112.659 154.577 112.906C154.256 113.153 154.031 113.417 153.901 113.697L152.779 113.297C152.979 112.829 153.246 112.465 153.58 112.205C153.917 111.941 154.284 111.758 154.682 111.654C155.082 111.547 155.476 111.494 155.863 111.494C156.11 111.494 156.394 111.524 156.715 111.584C157.038 111.641 157.351 111.759 157.651 111.94C157.955 112.12 158.207 112.392 158.407 112.756C158.607 113.12 158.708 113.607 158.708 114.218V119.285H157.526V118.244H157.466C157.386 118.411 157.252 118.589 157.065 118.779C156.878 118.97 156.63 119.132 156.319 119.265C156.009 119.399 155.63 119.465 155.182 119.465ZM155.363 118.404C155.83 118.404 156.224 118.312 156.544 118.128C156.868 117.945 157.112 117.708 157.275 117.417C157.442 117.127 157.526 116.822 157.526 116.501V115.42C157.476 115.48 157.366 115.535 157.195 115.585C157.028 115.632 156.835 115.673 156.614 115.71C156.398 115.743 156.186 115.773 155.979 115.8C155.775 115.824 155.61 115.844 155.483 115.86C155.176 115.9 154.889 115.965 154.622 116.056C154.358 116.142 154.144 116.274 153.981 116.451C153.82 116.625 153.74 116.862 153.74 117.162C153.74 117.573 153.892 117.883 154.196 118.093C154.503 118.3 154.892 118.404 155.363 118.404ZM164.209 111.594V112.596H160.223V111.594H164.209ZM161.385 109.751H162.567V117.082C162.567 117.416 162.615 117.666 162.712 117.833C162.812 117.997 162.939 118.107 163.093 118.164C163.249 118.217 163.415 118.244 163.588 118.244C163.718 118.244 163.825 118.237 163.909 118.224C163.992 118.207 164.059 118.194 164.109 118.184L164.349 119.245C164.269 119.275 164.157 119.305 164.014 119.335C163.87 119.369 163.688 119.385 163.468 119.385C163.134 119.385 162.807 119.314 162.487 119.17C162.17 119.026 161.906 118.808 161.696 118.514C161.489 118.22 161.385 117.85 161.385 117.402V109.751ZM169.029 119.445C168.308 119.445 167.687 119.275 167.166 118.935C166.645 118.594 166.245 118.125 165.964 117.528C165.684 116.93 165.544 116.247 165.544 115.48C165.544 114.699 165.687 114.009 165.974 113.412C166.265 112.811 166.669 112.342 167.186 112.005C167.707 111.664 168.314 111.494 169.009 111.494C169.549 111.494 170.037 111.594 170.471 111.794C170.905 111.995 171.26 112.275 171.537 112.636C171.814 112.996 171.986 113.417 172.053 113.897H170.871C170.781 113.547 170.581 113.236 170.27 112.966C169.963 112.692 169.549 112.555 169.029 112.555C168.568 112.555 168.164 112.676 167.817 112.916C167.473 113.153 167.204 113.488 167.011 113.922C166.82 114.353 166.725 114.859 166.725 115.44C166.725 116.034 166.819 116.551 167.006 116.992C167.196 117.432 167.463 117.775 167.807 118.018C168.154 118.262 168.561 118.384 169.029 118.384C169.336 118.384 169.614 118.33 169.865 118.224C170.115 118.117 170.327 117.963 170.501 117.763C170.674 117.563 170.798 117.322 170.871 117.042H172.053C171.986 117.496 171.821 117.905 171.557 118.269C171.297 118.629 170.951 118.916 170.521 119.13C170.093 119.34 169.596 119.445 169.029 119.445ZM174.962 114.659V119.285H173.78V109.03H174.962V112.796H175.062C175.243 112.399 175.513 112.083 175.873 111.849C176.237 111.612 176.721 111.494 177.326 111.494C177.85 111.494 178.309 111.599 178.702 111.809C179.096 112.016 179.402 112.335 179.619 112.766C179.839 113.193 179.949 113.737 179.949 114.398V119.285H178.768V114.478C178.768 113.867 178.609 113.395 178.292 113.061C177.978 112.724 177.542 112.555 176.985 112.555C176.598 112.555 176.251 112.637 175.944 112.801C175.64 112.964 175.399 113.203 175.222 113.517C175.049 113.831 174.962 114.211 174.962 114.659Z" fill="#1C345F"/>
</svg>
